<?xml version="1.0"?>
<!-- Generated by SVGo -->
<svg width="700" height="1000"
     xmlns="http://www.w3.org/2000/svg"
     xmlns:xlink="http://www.w3.org/1999/xlink">
<line x1="365" y1="697" x2="382" y2="691" style="fill:none;stroke-width:3;stroke:bisque" />
<line x1="282" y1="523" x2="270" y2="512" style="fill:none;stroke-width:3;stroke:steelblue" />
<line x1="310" y1="700" x2="192" y2="730" style="fill:none;stroke-width:3;stroke:darkcyan" />
<line x1="509" y1="256" x2="547" y2="312" style="fill:none;stroke-width:3;stroke:orange" />
<line x1="382" y1="657" x2="375" y2="632" style="fill:none;stroke-width:3;stroke:tomato" />
<line x1="151" y1="746" x2="192" y2="730" style="fill:none;stroke-width:3;stroke:blue" />
<line x1="146" y1="763" x2="201" y2="790" style="fill:none;stroke-width:3;stroke:lavender" />
<line x1="250" y1="646" x2="247" y2="653" style="fill:none;stroke-width:3;stroke:mediumpurple" />
<line x1="382" y1="691" x2="371" y2="691" style="fill:none;stroke-width:3;stroke:navy" />
<line x1="376" y1="671" x2="398" y2="681" style="fill:none;stroke-width:3;stroke:darkred" />
<line x1="398" y1="681" x2="402" y2="683" style="fill:none;stroke-width:3;stroke:darkred" />
<line x1="206" y1="714" x2="192" y2="730" style="fill:none;stroke-width:3;stroke:floralwhite" />
<line x1="485" y1="439" x2="513" y2="458" style="fill:none;stroke-width:3;stroke:mediumseagreen" />
<line x1="292" y1="680" x2="263" y2="685" style="fill:none;stroke-width:3;stroke:darkolivegreen" />
<line x1="251" y1="609" x2="250" y2="613" style="fill:none;stroke-width:3;stroke:ghostwhite" />
<line x1="310" y1="643" x2="282" y2="619" style="fill:none;stroke-width:3;stroke:dimgrey" />
<line x1="230" y1="700" x2="255" y2="696" style="fill:none;stroke-width:3;stroke:deepskyblue" />
<line x1="256" y1="621" x2="271" y2="625" style="fill:none;stroke-width:3;stroke:ghostwhite" />
<line x1="250" y1="646" x2="259" y2="642" style="fill:none;stroke-width:3;stroke:mediumspringgreen" />
<line x1="357" y1="616" x2="375" y2="632" style="fill:none;stroke-width:3;stroke:springgreen" />
<line x1="382" y1="691" x2="397" y2="689" style="fill:none;stroke-width:3;stroke:midnightblue" />
<line x1="227" y1="805" x2="188" y2="842" style="fill:none;stroke-width:3;stroke:papayawhip" />
<line x1="192" y1="730" x2="255" y2="696" style="fill:none;stroke-width:3;stroke:lightgreen" />
<line x1="276" y1="646" x2="282" y2="648" style="fill:none;stroke-width:3;stroke:snow" />
<line x1="222" y1="688" x2="255" y2="696" style="fill:none;stroke-width:3;stroke:peru" />
<line x1="434" y1="229" x2="439" y2="232" style="fill:none;stroke-width:3;stroke:orange" />
<line x1="549" y1="366" x2="501" y2="397" style="fill:none;stroke-width:3;stroke:mediumseagreen" />
<line x1="325" y1="681" x2="316" y2="677" style="fill:none;stroke-width:3;stroke:paleturquoise" />
<line x1="300" y1="674" x2="292" y2="680" style="fill:none;stroke-width:3;stroke:darkolivegreen" />
<line x1="113" y1="732" x2="123" y2="714" style="fill:none;stroke-width:3;stroke:lime" />
<line x1="331" y1="659" x2="330" y2="653" style="fill:none;stroke-width:3;stroke:oldlace" />
<line x1="282" y1="648" x2="288" y2="649" style="fill:none;stroke-width:3;stroke:snow" />
<line x1="254" y1="616" x2="254" y2="620" style="fill:none;stroke-width:3;stroke:ghostwhite" />
<line x1="254" y1="620" x2="254" y2="616" style="fill:none;stroke-width:3;stroke:hotpink" />
<line x1="257" y1="664" x2="249" y2="656" style="fill:none;stroke-width:3;stroke:mediumspringgreen" />
<line x1="255" y1="696" x2="310" y2="700" style="fill:none;stroke-width:3;stroke:peru" />
<line x1="177" y1="741" x2="151" y2="746" style="fill:none;stroke-width:3;stroke:floralwhite" />
<line x1="308" y1="564" x2="319" y2="582" style="fill:none;stroke-width:3;stroke:magenta" />
<line x1="305" y1="678" x2="325" y2="681" style="fill:none;stroke-width:3;stroke:orangered" />
<line x1="327" y1="669" x2="300" y2="674" style="fill:none;stroke-width:3;stroke:darkolivegreen" />
<line x1="260" y1="686" x2="268" y2="676" style="fill:none;stroke-width:3;stroke:mediumspringgreen" />
<line x1="382" y1="657" x2="330" y2="653" style="fill:none;stroke-width:3;stroke:fuchsia" />
<line x1="201" y1="790" x2="146" y2="763" style="fill:none;stroke-width:3;stroke:lightcoral" />
<line x1="382" y1="657" x2="297" y2="575" style="fill:none;stroke-width:3;stroke:wheat" />
<line x1="514" y1="459" x2="513" y2="458" style="fill:none;stroke-width:3;stroke:slategray" />
<line x1="310" y1="700" x2="293" y2="697" style="fill:none;stroke-width:3;stroke:tomato" />
<line x1="329" y1="697" x2="325" y2="691" style="fill:none;stroke-width:3;stroke:paleturquoise" />
<line x1="257" y1="664" x2="261" y2="670" style="fill:none;stroke-width:3;stroke:mediumpurple" />
<line x1="327" y1="669" x2="319" y2="671" style="fill:none;stroke-width:3;stroke:tan" />
<line x1="126" y1="753" x2="98" y2="764" style="fill:none;stroke-width:3;stroke:floralwhite" />
<line x1="382" y1="691" x2="315" y2="717" style="fill:none;stroke-width:3;stroke:wheat" />
<line x1="234" y1="767" x2="227" y2="805" style="fill:none;stroke-width:3;stroke:papayawhip" />
<line x1="304" y1="656" x2="310" y2="661" style="fill:none;stroke-width:3;stroke:snow" />
<line x1="268" y1="676" x2="261" y2="670" style="fill:none;stroke-width:3;stroke:mediumspringgreen" />
<line x1="501" y1="397" x2="502" y2="410" style="fill:none;stroke-width:3;stroke:mediumseagreen" />
<line x1="325" y1="681" x2="305" y2="678" style="fill:none;stroke-width:3;stroke:mediumseagreen" />
<line x1="388" y1="503" x2="396" y2="518" style="fill:none;stroke-width:3;stroke:yellowgreen" />
<line x1="206" y1="714" x2="230" y2="700" style="fill:none;stroke-width:3;stroke:deepskyblue" />
<line x1="268" y1="676" x2="255" y2="696" style="fill:none;stroke-width:3;stroke:mediumpurple" />
<line x1="271" y1="625" x2="256" y2="621" style="fill:none;stroke-width:3;stroke:hotpink" />
<line x1="174" y1="681" x2="165" y2="674" style="fill:none;stroke-width:3;stroke:lightyellow" />
<line x1="327" y1="669" x2="402" y2="683" style="fill:none;stroke-width:3;stroke:lemonchiffon" />
<line x1="327" y1="669" x2="311" y2="671" style="fill:none;stroke-width:3;stroke:palegreen" />
<line x1="310" y1="643" x2="330" y2="653" style="fill:none;stroke-width:3;stroke:darkviolet" />
<line x1="310" y1="643" x2="299" y2="636" style="fill:none;stroke-width:3;stroke:lightgreen" />
<line x1="112" y1="794" x2="98" y2="764" style="fill:none;stroke-width:3;stroke:greenyellow" />
<line x1="319" y1="671" x2="311" y2="669" style="fill:none;stroke-width:3;stroke:tan" />
<line x1="382" y1="691" x2="374" y2="702" style="fill:none;stroke-width:3;stroke:olivedrab" />
<line x1="143" y1="816" x2="112" y2="794" style="fill:none;stroke-width:3;stroke:greenyellow" />
<line x1="98" y1="764" x2="192" y2="730" style="fill:none;stroke-width:3;stroke:cadetblue" />
<line x1="254" y1="730" x2="252" y2="723" style="fill:none;stroke-width:3;stroke:mediumspringgreen" />
<line x1="299" y1="636" x2="287" y2="632" style="fill:none;stroke-width:3;stroke:lightgreen" />
<line x1="513" y1="458" x2="514" y2="459" style="fill:none;stroke-width:3;stroke:mediumseagreen" />
<line x1="474" y1="471" x2="466" y2="473" style="fill:none;stroke-width:3;stroke:mediumseagreen" />
<line x1="255" y1="605" x2="251" y2="609" style="fill:none;stroke-width:3;stroke:ghostwhite" />
<line x1="311" y1="669" x2="310" y2="664" style="fill:none;stroke-width:3;stroke:tan" />
<line x1="255" y1="605" x2="227" y2="599" style="fill:none;stroke-width:3;stroke:hotpink" />
<line x1="313" y1="621" x2="282" y2="619" style="fill:none;stroke-width:3;stroke:mediumslateblue" />
<line x1="192" y1="730" x2="126" y2="753" style="fill:none;stroke-width:3;stroke:darkcyan" />
<line x1="140" y1="748" x2="126" y2="753" style="fill:none;stroke-width:3;stroke:floralwhite" />
<line x1="402" y1="683" x2="396" y2="667" style="fill:none;stroke-width:3;stroke:tomato" />
<line x1="281" y1="729" x2="309" y2="720" style="fill:none;stroke-width:3;stroke:paleturquoise" />
<line x1="270" y1="512" x2="231" y2="491" style="fill:none;stroke-width:3;stroke:steelblue" />
<line x1="330" y1="653" x2="331" y2="659" style="fill:none;stroke-width:3;stroke:palegreen" />
<line x1="310" y1="664" x2="310" y2="661" style="fill:none;stroke-width:3;stroke:tan" />
<line x1="547" y1="312" x2="544" y2="325" style="fill:none;stroke-width:3;stroke:orange" />
<line x1="260" y1="686" x2="260" y2="686" style="fill:none;stroke-width:3;stroke:deepskyblue" />
<line x1="403" y1="684" x2="309" y2="720" style="fill:none;stroke-width:3;stroke:papayawhip" />
<line x1="250" y1="613" x2="254" y2="616" style="fill:none;stroke-width:3;stroke:ghostwhite" />
<line x1="256" y1="733" x2="281" y2="729" style="fill:none;stroke-width:3;stroke:peachpuff" />
<line x1="338" y1="619" x2="326" y2="620" style="fill:none;stroke-width:3;stroke:mediumslateblue" />
<line x1="268" y1="676" x2="260" y2="686" style="fill:none;stroke-width:3;stroke:paleturquoise" />
<line x1="249" y1="656" x2="247" y2="653" style="fill:none;stroke-width:3;stroke:mediumspringgreen" />
<line x1="357" y1="616" x2="338" y2="619" style="fill:none;stroke-width:3;stroke:mediumslateblue" />
<line x1="254" y1="730" x2="256" y2="733" style="fill:none;stroke-width:3;stroke:mediumblue" />
<line x1="255" y1="696" x2="230" y2="700" style="fill:none;stroke-width:3;stroke:floralwhite" />
<line x1="305" y1="678" x2="292" y2="680" style="fill:none;stroke-width:3;stroke:mediumseagreen" />
<line x1="287" y1="632" x2="271" y2="625" style="fill:none;stroke-width:3;stroke:lightgreen" />
<line x1="145" y1="480" x2="153" y2="480" style="fill:none;stroke-width:3;stroke:lightgrey" />
<line x1="585" y1="358" x2="532" y2="293" style="fill:none;stroke-width:3;stroke:orange" />
<line x1="374" y1="702" x2="349" y2="712" style="fill:none;stroke-width:3;stroke:olivedrab" />
<line x1="188" y1="842" x2="227" y2="805" style="fill:none;stroke-width:3;stroke:peachpuff" />
<line x1="382" y1="691" x2="365" y2="697" style="fill:none;stroke-width:3;stroke:tomato" />
<line x1="389" y1="663" x2="393" y2="668" style="fill:none;stroke-width:3;stroke:springgreen" />
<line x1="257" y1="693" x2="260" y2="686" style="fill:none;stroke-width:3;stroke:deepskyblue" />
<line x1="300" y1="674" x2="327" y2="669" style="fill:none;stroke-width:3;stroke:deepskyblue" />
<line x1="398" y1="681" x2="524" y2="741" style="fill:none;stroke-width:3;stroke:firebrick" />
<line x1="177" y1="741" x2="192" y2="730" style="fill:none;stroke-width:3;stroke:deepskyblue" />
<line x1="192" y1="730" x2="206" y2="714" style="fill:none;stroke-width:3;stroke:deepskyblue" />
<line x1="338" y1="619" x2="349" y2="617" style="fill:none;stroke-width:3;stroke:mediumspringgreen" />
<line x1="227" y1="805" x2="240" y2="806" style="fill:none;stroke-width:3;stroke:lavender" />
<line x1="227" y1="599" x2="255" y2="605" style="fill:none;stroke-width:3;stroke:ghostwhite" />
<line x1="155" y1="682" x2="165" y2="674" style="fill:none;stroke-width:3;stroke:lime" />
<line x1="365" y1="530" x2="282" y2="523" style="fill:none;stroke-width:3;stroke:steelblue" />
<line x1="292" y1="680" x2="300" y2="674" style="fill:none;stroke-width:3;stroke:deepskyblue" />
<line x1="585" y1="358" x2="593" y2="356" style="fill:none;stroke-width:3;stroke:mediumspringgreen" />
<line x1="325" y1="691" x2="325" y2="681" style="fill:none;stroke-width:3;stroke:paleturquoise" />
<line x1="374" y1="702" x2="382" y2="691" style="fill:none;stroke-width:3;stroke:lavender" />
<line x1="192" y1="730" x2="310" y2="700" style="fill:none;stroke-width:3;stroke:cadetblue" />
<line x1="382" y1="657" x2="402" y2="683" style="fill:none;stroke-width:3;stroke:silver" />
<line x1="327" y1="669" x2="327" y2="671" style="fill:none;stroke-width:3;stroke:lightgreen" />
<line x1="165" y1="674" x2="174" y2="681" style="fill:none;stroke-width:3;stroke:lime" />
<line x1="310" y1="700" x2="329" y2="697" style="fill:none;stroke-width:3;stroke:paleturquoise" />
<line x1="250" y1="613" x2="251" y2="609" style="fill:none;stroke-width:3;stroke:hotpink" />
<line x1="251" y1="609" x2="255" y2="605" style="fill:none;stroke-width:3;stroke:hotpink" />
<line x1="134" y1="697" x2="145" y2="693" style="fill:none;stroke-width:3;stroke:lime" />
<line x1="114" y1="735" x2="98" y2="764" style="fill:none;stroke-width:3;stroke:lightyellow" />
<line x1="260" y1="686" x2="327" y2="669" style="fill:none;stroke-width:3;stroke:lemonchiffon" />
<line x1="281" y1="729" x2="256" y2="733" style="fill:none;stroke-width:3;stroke:papayawhip" />
<line x1="311" y1="671" x2="316" y2="677" style="fill:none;stroke-width:3;stroke:palegreen" />
<line x1="502" y1="410" x2="485" y2="439" style="fill:none;stroke-width:3;stroke:mediumseagreen" />
<line x1="403" y1="684" x2="310" y2="700" style="fill:none;stroke-width:3;stroke:darkcyan" />
<line x1="192" y1="730" x2="177" y2="741" style="fill:none;stroke-width:3;stroke:floralwhite" />
<line x1="252" y1="723" x2="255" y2="696" style="fill:none;stroke-width:3;stroke:mediumspringgreen" />
<line x1="355" y1="563" x2="360" y2="548" style="fill:none;stroke-width:3;stroke:mediumturquoise" />
<line x1="310" y1="700" x2="382" y2="691" style="fill:none;stroke-width:3;stroke:peru" />
<line x1="318" y1="716" x2="309" y2="720" style="fill:none;stroke-width:3;stroke:olivedrab" />
<line x1="393" y1="668" x2="402" y2="683" style="fill:none;stroke-width:3;stroke:springgreen" />
<line x1="331" y1="659" x2="327" y2="669" style="fill:none;stroke-width:3;stroke:palegreen" />
<line x1="351" y1="585" x2="355" y2="563" style="fill:none;stroke-width:3;stroke:mediumturquoise" />
<line x1="255" y1="696" x2="252" y2="723" style="fill:none;stroke-width:3;stroke:mediumblue" />
<line x1="358" y1="687" x2="351" y2="681" style="fill:none;stroke-width:3;stroke:navy" />
<line x1="389" y1="663" x2="382" y2="657" style="fill:none;stroke-width:3;stroke:snow" />
<line x1="310" y1="700" x2="309" y2="720" style="fill:none;stroke-width:3;stroke:navy" />
<line x1="313" y1="621" x2="326" y2="620" style="fill:none;stroke-width:3;stroke:mediumspringgreen" />
<line x1="227" y1="805" x2="234" y2="767" style="fill:none;stroke-width:3;stroke:peachpuff" />
<line x1="234" y1="767" x2="256" y2="733" style="fill:none;stroke-width:3;stroke:peachpuff" />
<line x1="329" y1="697" x2="365" y2="697" style="fill:none;stroke-width:3;stroke:bisque" />
<line x1="151" y1="746" x2="140" y2="748" style="fill:none;stroke-width:3;stroke:floralwhite" />
<line x1="201" y1="790" x2="227" y2="805" style="fill:none;stroke-width:3;stroke:lavender" />
<line x1="126" y1="753" x2="140" y2="748" style="fill:none;stroke-width:3;stroke:deepskyblue" />
<line x1="98" y1="764" x2="126" y2="753" style="fill:none;stroke-width:3;stroke:deepskyblue" />
<line x1="143" y1="816" x2="134" y2="847" style="fill:none;stroke-width:3;stroke:hotpink" />
<line x1="255" y1="696" x2="293" y2="697" style="fill:none;stroke-width:3;stroke:bisque" />
<line x1="293" y1="697" x2="310" y2="700" style="fill:none;stroke-width:3;stroke:bisque" />
<line x1="287" y1="632" x2="299" y2="636" style="fill:none;stroke-width:3;stroke:ivory" />
<line x1="290" y1="650" x2="300" y2="652" style="fill:none;stroke-width:3;stroke:snow" />
<line x1="349" y1="712" x2="318" y2="716" style="fill:none;stroke-width:3;stroke:olivedrab" />
<line x1="357" y1="616" x2="351" y2="585" style="fill:none;stroke-width:3;stroke:mediumturquoise" />
<line x1="261" y1="670" x2="260" y2="686" style="fill:none;stroke-width:3;stroke:mediumpurple" />
<line x1="310" y1="661" x2="304" y2="656" style="fill:none;stroke-width:3;stroke:tan" />
<line x1="329" y1="697" x2="310" y2="700" style="fill:none;stroke-width:3;stroke:navy" />
<line x1="112" y1="794" x2="143" y2="816" style="fill:none;stroke-width:3;stroke:hotpink" />
<line x1="255" y1="696" x2="257" y2="693" style="fill:none;stroke-width:3;stroke:deepskyblue" />
<line x1="316" y1="677" x2="322" y2="680" style="fill:none;stroke-width:3;stroke:palegreen" />
<line x1="325" y1="681" x2="325" y2="691" style="fill:none;stroke-width:3;stroke:navy" />
<line x1="300" y1="652" x2="290" y2="650" style="fill:none;stroke-width:3;stroke:tan" />
<line x1="309" y1="720" x2="382" y2="691" style="fill:none;stroke-width:3;stroke:white" />
<line x1="260" y1="686" x2="292" y2="680" style="fill:none;stroke-width:3;stroke:deepskyblue" />
<line x1="354" y1="667" x2="337" y2="668" style="fill:none;stroke-width:3;stroke:darksalmon" />
<line x1="309" y1="720" x2="310" y2="700" style="fill:none;stroke-width:3;stroke:paleturquoise" />
<line x1="256" y1="733" x2="234" y2="767" style="fill:none;stroke-width:3;stroke:papayawhip" />
<line x1="192" y1="730" x2="98" y2="764" style="fill:none;stroke-width:3;stroke:aquamarine" />
<line x1="318" y1="716" x2="349" y2="712" style="fill:none;stroke-width:3;stroke:lavender" />
<line x1="371" y1="691" x2="382" y2="691" style="fill:none;stroke-width:3;stroke:midnightblue" />
<line x1="355" y1="563" x2="351" y2="585" style="fill:none;stroke-width:3;stroke:yellowgreen" />
<line x1="402" y1="683" x2="462" y2="774" style="fill:none;stroke-width:3;stroke:tomato" />
<line x1="98" y1="764" x2="151" y2="746" style="fill:none;stroke-width:3;stroke:blue" />
<line x1="288" y1="649" x2="282" y2="648" style="fill:none;stroke-width:3;stroke:tan" />
<line x1="254" y1="616" x2="250" y2="613" style="fill:none;stroke-width:3;stroke:hotpink" />
<line x1="205" y1="684" x2="222" y2="688" style="fill:none;stroke-width:3;stroke:peru" />
<line x1="150" y1="869" x2="159" y2="864" style="fill:none;stroke-width:3;stroke:peachpuff" />
<line x1="153" y1="480" x2="161" y2="484" style="fill:none;stroke-width:3;stroke:lightgrey" />
<line x1="402" y1="683" x2="398" y2="681" style="fill:none;stroke-width:3;stroke:darkblue" />
<line x1="376" y1="671" x2="354" y2="667" style="fill:none;stroke-width:3;stroke:darksalmon" />
<line x1="174" y1="681" x2="205" y2="684" style="fill:none;stroke-width:3;stroke:peru" />
<line x1="151" y1="746" x2="98" y2="764" style="fill:none;stroke-width:3;stroke:seagreen" />
<line x1="260" y1="686" x2="257" y2="693" style="fill:none;stroke-width:3;stroke:darkgreen" />
<line x1="140" y1="748" x2="151" y2="746" style="fill:none;stroke-width:3;stroke:deepskyblue" />
<line x1="205" y1="684" x2="174" y2="681" style="fill:none;stroke-width:3;stroke:lightyellow" />
<line x1="300" y1="652" x2="304" y2="656" style="fill:none;stroke-width:3;stroke:snow" />
<line x1="165" y1="674" x2="155" y2="682" style="fill:none;stroke-width:3;stroke:lightyellow" />
<line x1="608" y1="370" x2="596" y2="366" style="fill:none;stroke-width:3;stroke:turquoise" />
<line x1="325" y1="691" x2="329" y2="697" style="fill:none;stroke-width:3;stroke:navy" />
<line x1="304" y1="656" x2="300" y2="652" style="fill:none;stroke-width:3;stroke:tan" />
<line x1="309" y1="720" x2="281" y2="729" style="fill:none;stroke-width:3;stroke:navy" />
<line x1="596" y1="366" x2="608" y2="370" style="fill:none;stroke-width:3;stroke:mediumvioletred" />
<line x1="230" y1="700" x2="206" y2="714" style="fill:none;stroke-width:3;stroke:floralwhite" />
<line x1="351" y1="681" x2="358" y2="687" style="fill:none;stroke-width:3;stroke:midnightblue" />
<line x1="408" y1="228" x2="405" y2="228" style="fill:none;stroke-width:3;stroke:mediumseagreen" />
<line x1="282" y1="619" x2="271" y2="625" style="fill:none;stroke-width:3;stroke:mediumslateblue" />
<line x1="330" y1="653" x2="310" y2="643" style="fill:none;stroke-width:3;stroke:fuchsia" />
<line x1="382" y1="657" x2="380" y2="655" style="fill:none;stroke-width:3;stroke:magenta" />
<line x1="354" y1="667" x2="376" y2="671" style="fill:none;stroke-width:3;stroke:darkred" />
<line x1="161" y1="484" x2="173" y2="482" style="fill:none;stroke-width:3;stroke:lightgrey" />
<line x1="257" y1="693" x2="255" y2="696" style="fill:none;stroke-width:3;stroke:darkgreen" />
<line x1="276" y1="646" x2="270" y2="643" style="fill:none;stroke-width:3;stroke:tan" />
<line x1="256" y1="621" x2="254" y2="620" style="fill:none;stroke-width:3;stroke:hotpink" />
<line x1="114" y1="735" x2="113" y2="732" style="fill:none;stroke-width:3;stroke:lime" />
<line x1="310" y1="664" x2="311" y2="669" style="fill:none;stroke-width:3;stroke:snow" />
<line x1="173" y1="482" x2="222" y2="483" style="fill:none;stroke-width:3;stroke:lightgrey" />
<line x1="434" y1="229" x2="408" y2="228" style="fill:none;stroke-width:3;stroke:mediumseagreen" />
<line x1="270" y1="643" x2="276" y2="646" style="fill:none;stroke-width:3;stroke:snow" />
<line x1="393" y1="668" x2="389" y2="663" style="fill:none;stroke-width:3;stroke:snow" />
<line x1="365" y1="697" x2="329" y2="697" style="fill:none;stroke-width:3;stroke:tomato" />
<line x1="123" y1="714" x2="134" y2="697" style="fill:none;stroke-width:3;stroke:lime" />
<line x1="326" y1="620" x2="338" y2="619" style="fill:none;stroke-width:3;stroke:mediumspringgreen" />
<line x1="123" y1="714" x2="113" y2="732" style="fill:none;stroke-width:3;stroke:lightyellow" />
<line x1="435" y1="485" x2="388" y2="503" style="fill:none;stroke-width:3;stroke:yellowgreen" />
<line x1="271" y1="625" x2="282" y2="619" style="fill:none;stroke-width:3;stroke:mediumspringgreen" />
<line x1="282" y1="619" x2="313" y2="621" style="fill:none;stroke-width:3;stroke:mediumspringgreen" />
<line x1="310" y1="661" x2="310" y2="664" style="fill:none;stroke-width:3;stroke:snow" />
<line x1="366" y1="525" x2="388" y2="503" style="fill:none;stroke-width:3;stroke:slategray" />
<line x1="408" y1="228" x2="434" y2="229" style="fill:none;stroke-width:3;stroke:mediumblue" />
<line x1="514" y1="459" x2="474" y2="471" style="fill:none;stroke-width:3;stroke:mediumseagreen" />
<line x1="397" y1="689" x2="530" y2="664" style="fill:none;stroke-width:3;stroke:orangered" />
<line x1="319" y1="671" x2="327" y2="669" style="fill:none;stroke-width:3;stroke:snow" />
<line x1="402" y1="683" x2="382" y2="657" style="fill:none;stroke-width:3;stroke:chartreuse" />
<line x1="271" y1="625" x2="287" y2="632" style="fill:none;stroke-width:3;stroke:ivory" />
<line x1="255" y1="696" x2="260" y2="686" style="fill:none;stroke-width:3;stroke:lightgreen" />
<line x1="388" y1="503" x2="435" y2="485" style="fill:none;stroke-width:3;stroke:slategray" />
<line x1="174" y1="681" x2="129" y2="667" style="fill:none;stroke-width:3;stroke:lightyellow" />
<line x1="270" y1="643" x2="259" y2="642" style="fill:none;stroke-width:3;stroke:tan" />
<line x1="259" y1="642" x2="270" y2="643" style="fill:none;stroke-width:3;stroke:snow" />
<line x1="309" y1="720" x2="318" y2="716" style="fill:none;stroke-width:3;stroke:lavender" />
<line x1="227" y1="805" x2="201" y2="790" style="fill:none;stroke-width:3;stroke:lightcoral" />
<line x1="585" y1="358" x2="590" y2="361" style="fill:none;stroke-width:3;stroke:violet" />
<line x1="270" y1="512" x2="282" y2="523" style="fill:none;stroke-width:3;stroke:magenta" />
<line x1="311" y1="671" x2="327" y2="669" style="fill:none;stroke-width:3;stroke:oldlace" />
<line x1="145" y1="693" x2="155" y2="682" style="fill:none;stroke-width:3;stroke:lime" />
<line x1="159" y1="864" x2="188" y2="842" style="fill:none;stroke-width:3;stroke:peachpuff" />
<line x1="188" y1="842" x2="184" y2="844" style="fill:none;stroke-width:3;stroke:papayawhip" />
<line x1="304" y1="558" x2="308" y2="564" style="fill:none;stroke-width:3;stroke:magenta" />
<line x1="325" y1="681" x2="324" y2="681" style="fill:none;stroke-width:3;stroke:orangered" />
<line x1="299" y1="636" x2="310" y2="643" style="fill:none;stroke-width:3;stroke:ivory" />
<line x1="98" y1="764" x2="112" y2="794" style="fill:none;stroke-width:3;stroke:hotpink" />
<line x1="292" y1="680" x2="305" y2="678" style="fill:none;stroke-width:3;stroke:orangered" />
<line x1="249" y1="656" x2="257" y2="664" style="fill:none;stroke-width:3;stroke:mediumpurple" />
<line x1="155" y1="682" x2="145" y2="693" style="fill:none;stroke-width:3;stroke:lightyellow" />
<line x1="382" y1="657" x2="378" y2="651" style="fill:none;stroke-width:3;stroke:mediumslateblue" />
<line x1="227" y1="599" x2="227" y2="599" style="fill:none;stroke-width:3;stroke:ghostwhite" />
<line x1="222" y1="688" x2="205" y2="684" style="fill:none;stroke-width:3;stroke:lightyellow" />
<line x1="134" y1="697" x2="123" y2="714" style="fill:none;stroke-width:3;stroke:lightyellow" />
<line x1="358" y1="687" x2="371" y2="691" style="fill:none;stroke-width:3;stroke:midnightblue" />
<line x1="435" y1="485" x2="514" y2="459" style="fill:none;stroke-width:3;stroke:slategray" />
<line x1="310" y1="700" x2="403" y2="684" style="fill:none;stroke-width:3;stroke:cadetblue" />
<line x1="375" y1="632" x2="357" y2="616" style="fill:none;stroke-width:3;stroke:tomato" />
<line x1="252" y1="723" x2="254" y2="730" style="fill:none;stroke-width:3;stroke:mediumblue" />
<line x1="351" y1="681" x2="325" y2="681" style="fill:none;stroke-width:3;stroke:navy" />
<line x1="311" y1="669" x2="319" y2="671" style="fill:none;stroke-width:3;stroke:snow" />
<line x1="222" y1="483" x2="231" y2="491" style="fill:none;stroke-width:3;stroke:lightgrey" />
<line x1="349" y1="712" x2="374" y2="702" style="fill:none;stroke-width:3;stroke:lavender" />
<line x1="146" y1="763" x2="98" y2="764" style="fill:none;stroke-width:3;stroke:lightcoral" />
<line x1="396" y1="518" x2="366" y2="525" style="fill:none;stroke-width:3;stroke:yellowgreen" />
<line x1="366" y1="525" x2="365" y2="530" style="fill:none;stroke-width:3;stroke:yellowgreen" />
<line x1="316" y1="677" x2="315" y2="677" style="fill:none;stroke-width:3;stroke:paleturquoise" />
<line x1="257" y1="693" x2="268" y2="676" style="fill:none;stroke-width:3;stroke:mediumpurple" />
<line x1="145" y1="693" x2="134" y2="697" style="fill:none;stroke-width:3;stroke:lightyellow" />
<line x1="231" y1="491" x2="254" y2="503" style="fill:none;stroke-width:3;stroke:lightgrey" />
<line x1="319" y1="582" x2="357" y2="616" style="fill:none;stroke-width:3;stroke:magenta" />
<line x1="439" y1="232" x2="441" y2="232" style="fill:none;stroke-width:3;stroke:orange" />
<line x1="98" y1="764" x2="114" y2="735" style="fill:none;stroke-width:3;stroke:lime" />
<line x1="134" y1="847" x2="159" y2="864" style="fill:none;stroke-width:3;stroke:hotpink" />
<line x1="596" y1="366" x2="585" y2="358" style="fill:none;stroke-width:3;stroke:turquoise" />
<line x1="357" y1="616" x2="382" y2="657" style="fill:none;stroke-width:3;stroke:magenta" />
<line x1="396" y1="667" x2="382" y2="657" style="fill:none;stroke-width:3;stroke:tomato" />
<line x1="247" y1="653" x2="250" y2="646" style="fill:none;stroke-width:3;stroke:mediumspringgreen" />
<line x1="375" y1="632" x2="382" y2="657" style="fill:none;stroke-width:3;stroke:springgreen" />
<line x1="282" y1="523" x2="304" y2="558" style="fill:none;stroke-width:3;stroke:magenta" />
<line x1="259" y1="642" x2="250" y2="646" style="fill:none;stroke-width:3;stroke:mediumpurple" />
<line x1="261" y1="670" x2="257" y2="664" style="fill:none;stroke-width:3;stroke:mediumspringgreen" />
<line x1="254" y1="620" x2="256" y2="621" style="fill:none;stroke-width:3;stroke:ghostwhite" />
<line x1="293" y1="697" x2="255" y2="696" style="fill:none;stroke-width:3;stroke:tomato" />
<line x1="227" y1="599" x2="227" y2="599" style="fill:none;stroke-width:3;stroke:gold" />
<line x1="259" y1="642" x2="271" y2="625" style="fill:none;stroke-width:3;stroke:mediumspringgreen" />
<line x1="309" y1="720" x2="403" y2="684" style="fill:none;stroke-width:3;stroke:peachpuff" />
<line x1="282" y1="619" x2="310" y2="643" style="fill:none;stroke-width:3;stroke:darkviolet" />
<line x1="330" y1="653" x2="382" y2="657" style="fill:none;stroke-width:3;stroke:darkviolet" />
<line x1="247" y1="653" x2="249" y2="656" style="fill:none;stroke-width:3;stroke:mediumpurple" />
<line x1="192" y1="730" x2="151" y2="746" style="fill:none;stroke-width:3;stroke:seagreen" />
<line x1="151" y1="746" x2="177" y2="741" style="fill:none;stroke-width:3;stroke:deepskyblue" />
<line x1="261" y1="670" x2="268" y2="676" style="fill:none;stroke-width:3;stroke:paleturquoise" />
<line x1="326" y1="620" x2="313" y2="621" style="fill:none;stroke-width:3;stroke:mediumslateblue" />
<line x1="396" y1="667" x2="402" y2="683" style="fill:none;stroke-width:3;stroke:yellowgreen" />
<line x1="327" y1="669" x2="331" y2="659" style="fill:none;stroke-width:3;stroke:oldlace" />
<line x1="240" y1="806" x2="318" y2="816" style="fill:none;stroke-width:3;stroke:lavender" />
<line x1="371" y1="691" x2="358" y2="687" style="fill:none;stroke-width:3;stroke:navy" />
<line x1="441" y1="232" x2="509" y2="256" style="fill:none;stroke-width:3;stroke:orange" />
<line x1="288" y1="649" x2="290" y2="650" style="fill:none;stroke-width:3;stroke:snow" />
<line x1="113" y1="732" x2="114" y2="735" style="fill:none;stroke-width:3;stroke:lightyellow" />
<line x1="544" y1="325" x2="585" y2="358" style="fill:none;stroke-width:3;stroke:orange" />
<line x1="327" y1="669" x2="244" y2="675" style="fill:none;stroke-width:3;stroke:cadetblue" />
<line x1="290" y1="650" x2="288" y2="649" style="fill:none;stroke-width:3;stroke:tan" />
<line x1="260" y1="686" x2="260" y2="686" style="fill:none;stroke-width:3;stroke:darkgreen" />
<line x1="260" y1="686" x2="255" y2="696" style="fill:none;stroke-width:3;stroke:lightyellow" />
<line x1="365" y1="530" x2="355" y2="563" style="fill:none;stroke-width:3;stroke:yellowgreen" />
<line x1="351" y1="585" x2="357" y2="616" style="fill:none;stroke-width:3;stroke:yellowgreen" />
<line x1="159" y1="864" x2="150" y2="869" style="fill:none;stroke-width:3;stroke:hotpink" />
<line x1="282" y1="648" x2="276" y2="646" style="fill:none;stroke-width:3;stroke:tan" />
<line x1="255" y1="696" x2="222" y2="688" style="fill:none;stroke-width:3;stroke:lightyellow" />
</svg>
